<?xml version="1.0" encoding="utf-8"?>
<!-- Generator: Adobe Illustrator 24.1.1, SVG Export Plug-In . SVG Version: 6.00 Build 0)  -->
<svg version="1.1" id="Слой_1" xmlns="http://www.w3.org/2000/svg" xmlns:xlink="http://www.w3.org/1999/xlink" x="0px" y="0px"
	 viewBox="0 0 433.7 223.3" style="enable-background:new 0 0 433.7 223.3;" xml:space="preserve">
<g>
	<path d="M47.3,221.6v-3.4c2.9,1.9,6.1,2.8,9.7,2.8c5.7,0,8.6-2.4,8.6-7.3c-0.1-2.2-0.8-3.9-2-4.9c-1.2-1-3.3-2.2-6.4-3.5
		c-2.1-0.9-3.8-1.7-5.1-2.5c-3-1.8-4.5-4.4-4.5-8c0-3.1,1-5.5,3-7.3c2-1.8,4.7-2.7,8.2-2.7c3.2,0,6.1,0.7,8.7,2.1v3.5
		c-2.7-1.8-5.5-2.6-8.5-2.6c-2.4,0-4.4,0.6-5.8,1.8c-1.5,1.2-2.2,2.9-2.2,5.1c0,1.4,0.4,2.6,1.1,3.6c0.7,0.9,1.5,1.6,2.5,2.2
		c1,0.6,2.5,1.3,4.5,2.2c1.9,0.8,3.6,1.6,5.2,2.5c3.2,1.8,4.8,4.6,4.8,8.5c0,3.4-1,6-3.1,7.8c-2.1,1.8-5,2.6-8.7,2.6
		C53.3,223.9,50,223.1,47.3,221.6L47.3,221.6z M130.3,223.3v-35.2h-11.7v-2.8h26.8v2.8h-11.7v35.2H130.3L130.3,223.3z M194,204.3
		c0-5.7,1.7-10.4,5-14.1c3.3-3.7,7.8-5.5,13.6-5.5c5.7,0,10.3,1.8,13.5,5.4c3.3,3.6,4.9,8.2,4.9,13.9c0,5.8-1.7,10.6-5,14.3
		c-3.3,3.7-7.8,5.6-13.6,5.6c-5.7,0-10.2-1.8-13.5-5.5C195.6,214.7,194,210,194,204.3L194,204.3z M227.6,204.1
		c0-4.8-1.4-8.7-4.2-11.8c-2.8-3.1-6.4-4.6-11-4.6c-4.5,0-8.1,1.5-10.9,4.6c-2.8,3.1-4.2,7-4.2,11.8c0,4.8,1.4,8.8,4.1,11.9
		c2.8,3.1,6.4,4.7,11,4.7c4.6,0,8.3-1.6,11-4.7C226.2,213,227.6,209,227.6,204.1L227.6,204.1z M284.7,223.3v-38h11.6
		c4.8,0,8.3,0.8,10.5,2.5c2.2,1.7,3.3,4.7,3.3,9c0,3.3-0.6,5.9-1.9,7.7c-1.3,1.8-3.4,3-6.4,3.5l9.9,15.3h-3.9l-9.3-14.9H288v14.9
		H284.7L284.7,223.3z M288,205.6h8.2c3.9,0,6.7-0.6,8.2-1.8c1.6-1.2,2.4-3.5,2.4-7c0-3.3-0.8-5.6-2.5-6.8c-1.7-1.2-4.5-1.8-8.6-1.8
		H288V205.6L288,205.6z M364.2,223.3v-38h21.5v2.8h-18.2v14.4h13.7v2.8h-13.7v15.1h18.9v2.9H364.2L364.2,223.3z"/>
	<path d="M61,35.4L39.6,84.9h42.8L61,35.4L61,35.4z M61,0l61.2,139.8h-17.3L87.3,98.6H34.8l-17.5,41.2H0L61,0L61,0z M199,119.8v16.7
		c-3.8,2.3-8.1,4-12.8,5.1c-4.7,1.1-9.9,1.7-15.4,1.7c-13,0-23.4-4.1-31.4-12.4c-7.9-8.2-11.9-19.1-11.9-32.4
		c0-13.5,4.1-24.5,12.3-33c8.2-8.5,18.7-12.8,31.5-12.8c4.6,0,9.2,0.5,13.6,1.5c4.4,1,8.6,2.4,12.5,4.3v15.4
		c-3.7-2.4-7.5-4.2-11.4-5.5c-3.9-1.3-7.9-1.9-11.9-1.9c-9.4,0-17,2.9-22.7,8.9c-5.7,5.9-8.6,13.7-8.6,23.5c0,8.6,2.9,15.9,8.6,21.7
		c5.7,5.8,12.9,8.7,21.5,8.7c4.4,0,8.6-0.8,12.8-2.3C190,125.6,194.4,123.1,199,119.8L199,119.8z M283.5,119.8v16.7
		c-3.8,2.3-8.1,4-12.8,5.1c-4.7,1.1-9.9,1.7-15.4,1.7c-13,0-23.4-4.1-31.4-12.4c-7.9-8.2-11.9-19.1-11.9-32.4
		c0-13.5,4.1-24.5,12.3-33c8.2-8.5,18.7-12.8,31.5-12.8c4.6,0,9.2,0.5,13.6,1.5c4.4,1,8.6,2.4,12.5,4.3v15.4
		c-3.7-2.4-7.5-4.2-11.4-5.5c-3.9-1.3-7.9-1.9-11.9-1.9c-9.4,0-17,2.9-22.7,8.9c-5.7,5.9-8.6,13.7-8.6,23.5c0,8.6,2.9,15.9,8.6,21.7
		c5.7,5.8,12.9,8.7,21.5,8.7c4.4,0,8.6-0.8,12.8-2.3C274.5,125.6,278.9,123.1,283.5,119.8L283.5,119.8z M300.9,15.2
		c0-2.9,1-5.3,3.1-7.4c2-2.1,4.5-3.1,7.5-3.1c2.9,0,5.3,1,7.4,3.1c2,2.1,3.1,4.6,3.1,7.5c0,2.9-1,5.3-3,7.4c-2,2-4.5,3-7.4,3
		c-2.9,0-5.5-1-7.5-3C301.9,20.8,300.9,18.2,300.9,15.2L300.9,15.2z M304.2,139.8v-84h14.5v84H304.2L304.2,139.8z M357.5,98
		c0,8.9,3,16.4,8.9,22.5c6,6.2,13.2,9.2,21.6,9.2c8.4,0,15.5-3.1,21.4-9.2c5.9-6.1,8.8-13.7,8.8-22.5c0-8.9-2.9-16.4-8.8-22.5
		c-5.9-6.2-13-9.2-21.4-9.2c-8.5,0-15.7,3.1-21.6,9.2C360.5,81.6,357.5,89.1,357.5,98L357.5,98z M342.3,98c0-6.2,1.1-12,3.4-17.5
		c2.3-5.5,5.6-10.3,9.9-14.6c4.4-4.3,9.3-7.6,14.8-9.8c5.5-2.2,11.4-3.4,17.6-3.4c6.1,0,11.9,1.1,17.4,3.4
		c5.5,2.3,10.4,5.5,14.9,9.9c4.4,4.2,7.6,9.1,9.9,14.6c2.3,5.5,3.4,11.3,3.4,17.4c0,6.1-1.1,11.9-3.4,17.3
		c-2.3,5.4-5.6,10.3-9.9,14.5c-4.5,4.4-9.5,7.8-15,10.1c-5.5,2.3-11.3,3.5-17.3,3.5c-6.2,0-12-1.2-17.6-3.4
		c-5.5-2.3-10.5-5.6-14.8-9.9c-4.4-4.4-7.6-9.3-9.9-14.7C343.4,110,342.3,104.2,342.3,98L342.3,98z"/>
	<polygon points="31.5,162.8 407.9,162.8 407.9,165.3 29.8,165.3 29.8,162.8 31.5,162.8 	"/>
</g>
</svg>
